<?xml version="1.0" encoding="UTF-8"?>
<svg width="100pt" height="100pt" version="1.1" viewBox="0 0 100 100" xmlns="http://www.w3.org/2000/svg">
 <path d="m50 0.32031c-27.434 0-49.68 22.242-49.68 49.68s22.246 49.68 49.68 49.68c27.438 0 49.68-22.242 49.68-49.68s-22.242-49.68-49.68-49.68zm28.555 28.797-28.555 22.844-28.555-22.844c0.33984-0.097657 56.773-0.097657 57.109 0zm-59.602 2.4414 20.391 17.461-20.371 19.562c-0.125-0.38281-0.13281-36.668-0.019531-37.023zm2.5391 39.414 20.57-18.242 7.9375 6.457 7.9492-6.4688 20.562 18.25c-0.32812 0.09375-56.695 0.09375-57.02 0.003906zm59.535-2.3906-20.363-19.574 20.383-17.453c0.11719 0.35937 0.11328 36.645-0.019531 37.027z" fill="#fff"/>
</svg>
