<?xml version="1.0" encoding="UTF-8"?>
<svg fill="black" width="100pt" height="100pt" version="1.1" viewBox="0 0 100 100" xmlns="http://www.w3.org/2000/svg">
 <path d="m60.102 50 37.809-37.805c2.793-2.793 2.793-7.3086 0-10.102-2.793-2.793-7.3086-2.793-10.102 0l-37.809 37.809-37.805-37.809c-2.793-2.793-7.3086-2.793-10.102 0s-2.793 7.3086 0 10.102l37.809 37.805-37.809 37.809c-2.793 2.793-2.793 7.3086 0 10.102 1.3945 1.3906 3.2227 2.0898 5.0508 2.0898s3.6562-0.69922 5.0508-2.0898l37.805-37.809 37.809 37.809c1.3945 1.3906 3.2227 2.0898 5.0508 2.0898s3.6562-0.69922 5.0508-2.0898c2.793-2.793 2.793-7.3086 0-10.102l-37.809-37.809" fill-rule="evenodd"/>
</svg>
