<?xml version="1.0" encoding="UTF-8"?>
<svg fill="white" width="100pt" height="100pt" version="1.1" viewBox="0 0 100 100" xmlns="http://www.w3.org/2000/svg">
 <path d="m91.605 12.441c0-2.3008-1.8672-4.168-4.168-4.168h-29.461c-2.3008 0-4.168 1.8672-4.168 4.168 0 2.3008 1.8672 4.168 4.168 4.168h19.402l-28.242 28.242c-1.6289 1.6289-1.6289 4.2656 0 5.8906 1.6289 1.6289 4.2656 1.6289 5.8906 0l28.242-28.242v19.402c0 2.3008 1.8672 4.168 4.168 4.168s4.168-1.8672 4.168-4.168zm-59.277 79.227h35.344c3.3555 0 6.1211 0 8.375-0.18359 2.3438-0.19141 4.4961-0.60156 6.5156-1.6328 3.1367-1.5977 5.6836-4.1484 7.2852-7.2852 1.0312-2.0234 1.4414-4.1758 1.6328-6.5156 0.18359-2.2539 0.18359-5.0234 0.18359-8.3789v-3.0898c0-2.3008-1.8672-4.168-4.168-4.168-2.3008 0-4.168 1.8672-4.168 4.168v2.918c0 3.5703-0.003906 5.9961-0.15625 7.8711-0.14844 1.8281-0.42188 2.7617-0.75391 3.4141-0.79688 1.5664-2.0742 2.8438-3.6406 3.6406-0.65234 0.33203-1.5859 0.60156-3.4141 0.75391-1.875 0.15234-4.3008 0.15625-7.8711 0.15625h-35c-3.5703 0-5.9961-0.003907-7.8711-0.15625-1.8281-0.14844-2.7617-0.42188-3.4141-0.75391-1.5664-0.79688-2.8438-2.0742-3.6406-3.6406-0.33203-0.65234-0.60156-1.5859-0.75-3.4141-0.15234-1.875-0.15625-4.3008-0.15625-7.8711v-35c0-3.5703 0.003906-5.9961 0.15625-7.8711 0.14844-1.8281 0.41797-2.7617 0.75-3.4141 0.80078-1.5664 2.0742-2.8438 3.6406-3.6406 0.65234-0.33203 1.5859-0.60156 3.4141-0.75 1.875-0.15234 4.3008-0.15625 7.8711-0.15625h2.918c2.3008 0 4.168-1.8672 4.168-4.168s-1.8672-4.168-4.168-4.168h-3.0898c-3.3555 0-6.1211 0-8.3789 0.18359-2.3438 0.19141-4.4961 0.60156-6.5156 1.6328-3.1367 1.5977-5.6875 4.1484-7.2852 7.2852-1.0312 2.0234-1.4414 4.1758-1.6328 6.5156-0.18359 2.2539-0.18359 5.0234-0.18359 8.3789v35.344c0 3.3555 0 6.1211 0.18359 8.3789 0.19141 2.3438 0.60156 4.4961 1.6328 6.5156 1.5977 3.1367 4.1484 5.6875 7.2852 7.2852 2.0234 1.0312 4.1758 1.4414 6.5156 1.6328 2.2539 0.18359 5.0234 0.18359 8.3789 0.18359z" fill-rule="evenodd"/>
</svg>
